<svg xmlns="http://www.w3.org/2000/svg" width="12" height="14" viewBox="0 0 12 14"><path d="M6.875 9.375v1.25q0 .109-.07.18t-.18.07h-1.25q-.109 0-.18-.07t-.07-.18v-1.25q0-.109.07-.18t.18-.07h1.25q.109 0 .18.07t.07.18zm2-3.875q0 .391-.117.703t-.355.539-.406.344-.465.281q-.25.141-.363.219t-.203.187-.09.227v.25q0 .109-.07.18t-.18.07h-1.25q-.109 0-.18-.07t-.07-.18v-.531q0-.273.082-.504t.187-.371.305-.277.32-.199.348-.164q.414-.195.586-.336t.172-.383q0-.328-.34-.559t-.746-.23q-.438 0-.742.211-.227.156-.625.648-.07.094-.195.094-.086 0-.148-.047l-.844-.641q-.078-.055-.094-.156t.039-.18q.953-1.5 2.727-1.5 1.008 0 1.863.699T8.876 5.5zM6 2q-1.016 0-1.941.398T2.465 3.464 1.399 5.058t-.398 1.941.398 1.941 1.066 1.594T4.059 11.6 6 11.998t1.941-.398 1.594-1.066 1.066-1.594.398-1.941-.398-1.941-1.066-1.594-1.594-1.066T6 2zm6 5q0 1.633-.805 3.012t-2.184 2.184-3.012.805-3.012-.805-2.184-2.184T-.002 7t.805-3.012 2.184-2.184T5.999.999t3.012.805 2.184 2.184T12 7z"/></svg>