<?xml version="1.0" encoding="UTF-8" standalone="no"?>
<svg width="24px" height="24px" viewBox="0 0 24 24" version="1.1" xmlns="http://www.w3.org/2000/svg" xmlns:xlink="http://www.w3.org/1999/xlink">
    <!-- Generator: Sketch 48.2 (47327) - http://www.bohemiancoding.com/sketch -->
    <title>circle copy</title>
    <desc>Created with Sketch.</desc>
    <defs></defs>
    <g id="Artboard-2" stroke="none" stroke-width="1" fill="none" fill-rule="evenodd" transform="translate(-624.000000, -264.000000)">
        <g id="circle-copy" transform="translate(624.000000, 264.000000)" fill="#FFFFFF" fill-rule="nonzero">
            <path d="M24,12 C24,14.1769705 23.4634228,16.1846359 22.3902683,18.0229962 C21.3171138,19.8613564 19.8613564,21.3171138 18.0229962,22.3902683 C16.1846359,23.4634228 14.1769705,24 12,24 C9.8230295,24 7.81536411,23.4634228 5.97700383,22.3902683 C4.13864356,21.3171138 2.68288619,19.8613564 1.60973171,18.0229962 C0.536577237,16.1846359 1.03632456e-15,14.1769705 0,12 C-1.03632456e-15,9.8230295 0.536577237,7.81536411 1.60973171,5.97700383 C2.68288619,4.13864356 4.13864356,2.68288619 5.97700383,1.60973171 C7.81536411,0.536577237 9.8230295,1.11003802e-15 12,0 C14.1769705,-1.11003802e-15 16.1846359,0.536577237 18.0229962,1.60973171 C19.8613564,2.68288619 21.3171138,4.13864356 22.3902683,5.97700383 C23.4634228,7.81536411 24,9.8230295 24,12 Z" id="Shape"></path>
        </g>
    </g>
</svg>