<svg xmlns="http://www.w3.org/2000/svg" width="301" height="123" viewBox="0 0 301 123"><path fill="currentColor" d="M130.1 0H4.1C1.8 0 0 1.8 0 4.1s1.8 4.1 4.1 4.1h32.3v.1c.2 0 15.2-1.5 15.1 12v87.8c0 7.1 7.7 13.9 14.8 13.9H68c7.1 0 14.7-6.8 14.7-13.9V19.4C83.2 6.9 97.6 8.3 97.8 8.3v-.1h32.3c2.2 0 4.1-1.8 4.1-4.1S132.3 0 130.1 0zm71.8 24.2h-4.2c-4.6 0-8.6 2.4-10.9 6-.6.7-1.2 1.6-1.7 2.6l-13.4 26.9c-2.8 5.3-7.4 14.2-10.9 20.8-4.3 8.2-9.4 1.4-11.1-1.5-1.1-1.8-4.6-7.9-6.5-11.1l-20.4-39.4c-5.7-10.7-16.7-8.1-21.4-5.5-4.7 2.6-7.3 8.1-7.3 14.1v78.7c0 3.3 2.8 6.1 6.1 6.1 3.4 0 6.1-2.8 6.1-6.1V79.9c0-8.6 8.7-11.4 12.5-4.8 3.8 6.6 22.5 41.8 22.5 41.8 1.8 2.8 3.2 4.1 4.3 4.4.1.1.2.1.2.2 2.2 1.1 6 .4 8.7-4.6l17.8-35.2 3-5.9c1.3-2 2.4-4.3 6.1-4.3 4.3 0 5.6 2.7 5.6 7.5v28.9c-.1 8.2 5.7 14 12.9 14h3c7.2 0 11.9-6.9 11.9-14V37c0-7.1-5.8-12.8-12.9-12.8zm94.7 89.1h-29.4c-.4-.1-.8-.1-1.3-.1-6.6 0-7.8-2.9-8.7-5-.9-2 .9-7.9 3.1-12.6C262.5 91 283.1 46 283.1 46c1.3-2.6 6.7-12.7 8.5-16 .2-.3.3-.6.4-1 .1 0 .1-.1.1-.1v-.1c.1-.4.2-.8.2-1.3 0-2.3-1.7-4.1-3.8-4.1h-61.6c-2.1 0-3.8 1.8-3.8 4.1s1.7 4.2 3.8 4.2h24.6c2.2.4 3.8 2.3 3.9 4.6l-.1 1.2-25.7 55.7c-1 2-2.2 4.5-3.2 6.5-1.9 3.7-6.8 13-2.4 18.9 2.5 3.3 10.8 3 17.9 3h54.7c2.1 0 3.8-1.9 3.8-4.2 0-2.3-1.7-4.1-3.8-4.1z"/></svg>