<svg xmlns="http://www.w3.org/2000/svg" width="16" height="16" viewBox="0 0 24 24">
<path d="M24,22.4 C24,23.2834847 23.2834847,24 22.4,24 L14.6,24 C13.7165153,24 13,23.2834847 13,22.4 L13,14.6 C13,13.7165153 13.7165153,13 14.6,13 L22.4,13 C23.2834847,13 24,13.7165153 24,14.6 L24,22.4 Z M22,15 L15,15 L15,22 L22,22 L22,15 Z"/>
<path d="M24,9.4 C24,10.2834847 23.2834847,11 22.4,11 L14.6,11 C13.7165153,11 13,10.2834847 13,9.4 L13,1.6 C13,0.71651525 13.7165153,0 14.6,0 L22.4,0 C23.2834847,0 24,0.71651525 24,1.6 L24,9.4 Z M22,9 L22,2 L15,2 L15,9 L22,9 Z"/>
<path d="M11,9.4 C11,10.2834847 10.2834847,11 9.4,11 L1.6,11 C0.71651525,11 0,10.2834847 0,9.4 L0,1.6 C0,0.71651525 0.71651525,0 1.6,0 L9.4,0 C10.2834847,0 11,0.71651525 11,1.6 L11,9.4 Z M9,9 L9,2 L2,2 L2,9 L9,9 Z"/>
<path d="M11,22.4 C11,23.2834847 10.2834847,24 9.4,24 L1.6,24 C0.71651525,24 0,23.2834847 0,22.4 L0,14.6 C0,13.7165153 0.71651525,13 1.6,13 L9.4,13 C10.2834847,13 11,13.7165153 11,14.6 L11,22.4 Z M9,22 L9,15 L2,15 L2,22 L9,22 Z"/>
</svg>