<svg xmlns="http://www.w3.org/2000/svg" width="16" height="16" viewBox="0 0 24 24">
<path d="M17,12 C17,14.7614592 14.7613619,17 12,17 C9.23863807,17 7,14.7614592 7,12 C7,9.23854079 9.23863807,7 12,7 C14.7613619,7 17,9.23854079 17,12 Z M15,12 C15,10.3431297 13.6568119,9 12,9 C10.3431881,9 9,10.3431297 9,12 C9,13.6568703 10.3431881,15 12,15 C13.6568119,15 15,13.6568703 15,12 Z" id="Stroke-142" fill="#000000" fill-rule="nonzero"></path>
<path d="M20,19 C21.1045695,19 22,18.1045695 22,17 L21.9960938,17 L21.9960938,9 L22,9 C22,7.8954305 21.1045695,7 20,7 L17.3006766,7 C16.9286653,7 16.587403,6.79349425 16.4148112,6.46394234 L15.1244039,4 L9.00261896,4 L7.76582519,6.36157107 C7.64527681,6.70683909 7.34464351,6.98565298 6.86392529,6.99946365 C6.69525624,7.00596259 6.52265677,6.96979246 6.36240392,6.8858654 C5.87315397,6.62963712 5.68425258,6.02530761 5.94048086,5.53605766 L6.22122311,5 L6.82634626,5 C7.6570198,5 7.97017945,5.77627085 7.76582519,6.36157107 L7.71221166,6.46394234 C7.53991044,6.79293944 7.21020075,6.98612142 6.86392529,6.99946365 C6.85565436,6.99970127 6.82130649,6.99988005 6.7608817,7 C6.20859695,7 5.7608817,6.55228475 5.7608817,6 C5.7608817,5.44771525 6.20859695,5 6.7608817,5 L6.82634626,5 L6.82634626,7 L4,7 C2.8954305,7 2,7.8954305 2,9 L2,17 C2,18.1045695 2.8954305,19 4,19 L20,19 Z M20,21 L4,21 C1.790861,21 0,19.209139 0,17 L0,9 C8.8817842e-16,6.790861 1.790861,5 4,5 L6.22122311,5 L7.51163042,2.53605766 C7.6842222,2.20650575 8.02548455,2 8.39749581,2 L15.7295271,2 C16.1015383,2 16.4428007,2.20650575 16.6153925,2.53605766 L17.9057998,5 L20,5 C22.209139,5 24,6.790861 24,9 L23.9960938,9 L23.9960938,17 L24,17 C24,19.209139 22.209139,21 20,21 Z"/>
</svg>