<svg xmlns="http://www.w3.org/2000/svg" width="16" height="16" viewBox="0 0 24 24">
<path d="M12,24 C5.37282051,24 0,18.6271795 0,12 C0,5.37282051 5.37282051,0 12,0 C18.6271795,0 24,5.37282051 24,12 C24,18.6271795 18.6271795,24 12,24 Z M12,14.1213203 L15.5355339,17.6568542 C16.1213203,18.2426407 17.0710678,18.2426407 17.6568542,17.6568542 C18.2426407,17.0710678 18.2426407,16.1213203 17.6568542,15.5355339 L14.1213203,12 L17.6568542,8.46446609 C18.2426407,7.87867966 18.2426407,6.92893219 17.6568542,6.34314575 C17.0710678,5.75735931 16.1213203,5.75735931 15.5355339,6.34314575 L12,9.87867966 L8.46446609,6.34314575 C7.87867966,5.75735931 6.92893219,5.75735931 6.34314575,6.34314575 C5.75735931,6.92893219 5.75735931,7.87867966 6.34314575,8.46446609 L9.87867966,12 L6.34314575,15.5355339 C5.75735931,16.1213203 5.75735931,17.0710678 6.34314575,17.6568542 C6.92893219,18.2426407 7.87867966,18.2426407 8.46446609,17.6568542 L12,14.1213203 Z"/>
</svg>