<svg xmlns="http://www.w3.org/2000/svg" width="16" height="16" viewBox="0 0 24 24">
<path d="M9,11 L9,1 C9,0.44771525 9.44771525,1.01453063e-16 10,0 L14,0 C14.5522847,-1.01453063e-16 15,0.44771525 15,1 L15,11 L21,11 L13.1845798,18.5274127 C12.5303544,19.1575291 11.4696456,19.1575291 10.8154202,18.5274127 L3,11 L9,11 Z"/>
<path d="M1.5,21 L22.5,21 C23.3284271,21 24,21.6715729 24,22.5 C24,23.3284271 23.3284271,24 22.5,24 L1.5,24 C0.671572875,24 1.01453063e-16,23.3284271 0,22.5 C-1.01453063e-16,21.6715729 0.671572875,21 1.5,21 Z"/>
</svg>