<?xml version="1.0" encoding="UTF-8" standalone="no"?>
<svg width="24px" height="24px" viewBox="0 0 24 24" version="1.1" xmlns="http://www.w3.org/2000/svg" xmlns:xlink="http://www.w3.org/1999/xlink">
    <!-- Generator: Sketch 48.2 (47327) - http://www.bohemiancoding.com/sketch -->
    <title>download</title>
    <desc>Created with Sketch.</desc>
    <defs></defs>
    <g id="Artboard-2" stroke="none" stroke-width="1" fill="none" fill-rule="evenodd" transform="translate(-336.000000, -48.000000)">
        <g id="download" transform="translate(336.000000, 48.000000)">
            <rect id="24x24" x="0" y="0" width="24" height="24"></rect>
            <path d="M7.33175659,0.951585977 C8.81493642,0.317195326 10.3702385,0 11.9996661,0 C13.6290937,0 15.1850636,0.317195326 16.6682434,0.951585977 C18.1500876,1.58597663 19.4255822,2.43739566 20.4940594,3.50584307 C21.5632043,4.57429048 22.4139792,5.84974958 23.0483875,7.33222037 C23.6827958,8.81469115 24,10.3706177 24,12 C24,13.6293823 23.6827958,15.1853088 23.0483875,16.6677796 C22.4139792,18.1502504 21.5632043,19.4257095 20.4940594,20.4941569 C19.4255822,21.5626043 18.1500876,22.4140234 16.6682434,23.048414 C15.1850636,23.6828047 13.6290937,24 11.9996661,24 C10.3702385,24 8.81493642,23.6828047 7.33175659,23.048414 C5.84924455,22.4140234 4.57374997,21.5626043 3.50594062,20.4941569 C2.43679568,19.4257095 1.58535296,18.1502504 0.950944656,16.6677796 C0.316536353,15.1853088 0,13.6293823 0,12 C0,10.3706177 0.316536353,8.81469115 0.950944656,7.33222037 C1.58535296,5.84974958 2.43679568,4.57429048 3.50594062,3.50584307 C4.57374997,2.43739566 5.84924455,1.58597663 7.33175659,0.951585977 C7.33175659,0.951585977 5.84924455,1.58597663 7.33175659,0.951585977 L7.33175659,0.951585977 L7.33175659,0.951585977 Z M17.8302123,6.17028381 C16.2134728,4.5542571 14.27018,3.74624374 11.9996661,3.74624374 C9.72915217,3.74624374 7.78585937,4.5542571 6.1697877,6.17028381 C4.55371602,7.78631052 3.74568018,9.72954925 3.74568018,12 C3.74568018,14.2704508 4.55371602,16.2143573 6.1697877,17.8297162 C7.78585937,19.4457429 9.72915217,20.2537563 11.9996661,20.2537563 C14.27018,20.2537563 16.2134728,19.4457429 17.8302123,17.8297162 C19.4456162,16.2143573 20.2543198,14.2704508 20.2543198,12 C20.2543198,9.72954925 19.4456162,7.78631052 17.8302123,6.17028381 C17.8302123,6.17028381 19.4456162,7.78631052 17.8302123,6.17028381 L17.8302123,6.17028381 L17.8302123,6.17028381 Z M14.0030607,12 L17.0081527,12 L11.9996661,18.0100167 L6.9911795,12 L9.99627146,12 L9.99627146,5.98998331 L14.0030607,5.98998331 L14.0030607,12 L14.0030607,12 Z" id="Fill-32" fill="#231F20"></path>
        </g>
    </g>
</svg>