<svg width="16" height="16" xmlns="http://www.w3.org/2000/svg"><path d="M4.888.634A7.83 7.83 0 0 1 8 0c1.086 0 2.123.211 3.112.634.988.423 1.838.99 2.55 1.703a8.024 8.024 0 0 1 1.704 2.551C15.789 5.876 16 6.914 16 8a7.828 7.828 0 0 1-.634 3.112 8.024 8.024 0 0 1-1.703 2.55 8.035 8.035 0 0 1-2.55 1.704A7.833 7.833 0 0 1 8 16a7.83 7.83 0 0 1-3.112-.634 8.025 8.025 0 0 1-2.55-1.703 8.025 8.025 0 0 1-1.704-2.551A7.828 7.828 0 0 1 0 8c0-1.086.211-2.124.634-3.112a8.025 8.025 0 0 1 1.703-2.55A8.025 8.025 0 0 1 4.887.633s-.988.423 0 0zm6.999 3.48C10.809 3.036 9.513 2.497 8 2.497c-1.514 0-2.81.54-3.887 1.617S2.497 6.486 2.497 8c0 1.514.539 2.81 1.616 3.886C5.191 12.964 6.486 13.503 8 13.503c1.513 0 2.809-.54 3.887-1.617C12.964 10.81 13.503 9.514 13.503 8c0-1.514-.54-2.81-1.616-3.886 0 0 1.077 1.077 0 0zM9.335 8h2.004l-3.34 4.007L4.662 8h2.003V3.993h2.671V8z" fill="#231F20" fill-rule="evenodd"/></svg>