<svg xmlns="http://www.w3.org/2000/svg" width="16" height="16" viewBox="0 0 24 24">
<path d="M12,24 C5.37282051,24 0,18.6271795 0,12 C0,5.37282051 5.37282051,0 12,0 C18.6271795,0 24,5.37282051 24,12 C24,18.6271795 18.6271795,24 12,24 Z M12,22 C17.52261,22 22,17.52261 22,12 C22,6.47739001 17.52261,2 12,2 C6.47739001,2 2,6.47739001 2,12 C2,17.52261 6.47739001,22 12,22 Z"/>
<path d="M10,14 L10,6 C10,5.44771525 10.4477153,5 11,5 L13,5 C13.5522847,5 14,5.44771525 14,6 L14,14 L17.4177121,14 L12.7130791,18.704633 C12.3192564,19.0984557 11.6807436,19.0984557 11.2869209,18.704633 L6.58228792,14 L10,14 Z"/>
</svg>