<svg xmlns="http://www.w3.org/2000/svg" width="16" height="16" viewBox="0 0 40 40"><path d="M37 12a3 3 0 0 1 3 3v22a3 3 0 0 1-3 3H11a3 3 0 0 1-3-3V21.045C8 20.448 8.448 20 9 20a1 1 0 0 1 1 1v16a1 1 0 0 0 1 1h26a1 1 0 0 0 1-1V15a1 1 0 0 0-1-1H21a1 1 0 0 1 0-2h16zM20 31.332V20.667c0-.503.536-.824.98-.588l8.892 4.74a.666.666 0 0 1 .056 1.143l-8.891 5.925A.667.667 0 0 1 20 31.332zM17 15a2 2 0 0 1-2 2h-3.27v-6.583h2.21l.33-2.566h-2.54V6.213c0-.743.206-1.249 1.271-1.249h1.359V2.668a18.162 18.162 0 0 0-1.98-.101c-1.959 0-3.3 1.195-3.3 3.39v1.893H6.865v2.566H9.08V17H2a2 2 0 0 1-2-2V2a2 2 0 0 1 2-2h13a2 2 0 0 1 2 2v13z"/></svg>