<svg xmlns="http://www.w3.org/2000/svg" width="16" height="16" viewBox="0 0 40 40"><path d="M30.659 23.164l1.899-1.901-2.845-2.827-1.893 1.896 2.839 2.832zm-1.428 1.43l-2.84-2.833-8.639 8.649-.526 3.365 3.371-.539 8.634-8.643zm-7.433 10.299c-.15.151-.345.25-.556.284l-5.07.81a1.01 1.01 0 0 1-1.16-1.152l.792-5.06c.033-.211.132-.406.283-.557l12.907-12.921a1.013 1.013 0 0 1 1.43-.003l4.278 4.251c.396.393.397 1.032.003 1.427L21.798 34.893zM17 15a2 2 0 0 1-2 2h-3.27v-6.583h2.21l.33-2.566h-2.54V6.213c0-.743.206-1.249 1.271-1.249h1.359V2.668a18.162 18.162 0 0 0-1.98-.101c-1.959 0-3.3 1.195-3.3 3.39v1.893H6.865v2.566H9.08V17H2a2 2 0 0 1-2-2V2a2 2 0 0 1 2-2h13a2 2 0 0 1 2 2v13zm20-3a3 3 0 0 1 3 3v22a3 3 0 0 1-3 3H11a3 3 0 0 1-3-3V21.045C8 20.448 8.448 20 9 20a1 1 0 0 1 1 1v16a1 1 0 0 0 1 1h26a1 1 0 0 0 1-1V15a1 1 0 0 0-1-1H21a1 1 0 0 1 0-2h16z"/></svg>