<svg xmlns="http://www.w3.org/2000/svg" width="16" height="16" viewBox="0 0 24 24"><g fill="none" fill-rule="evenodd"><g><path fill="#E0E0E0" d="M0 0h24v24H0z"/><circle fill="#FFF" cx="12" cy="12" r="12"/></g><path d="M24 21.176A2.824 2.824 0 0 1 21.176 24H16.56v-9.294h3.12l.466-3.622H16.56V8.77c0-1.048.29-1.763 1.795-1.763h1.918v-3.24c-.332-.045-1.47-.143-2.795-.143-2.766 0-4.659 1.688-4.659 4.788v2.67H9.692v3.623h3.127V24H2.824A2.824 2.824 0 0 1 0 21.176V2.824A2.824 2.824 0 0 1 2.824 0h18.352A2.824 2.824 0 0 1 24 2.824v18.352z" fill="#000"/></g></svg>