<svg xmlns="http://www.w3.org/2000/svg" width="16" height="16" viewBox="0 0 24 24">
<path d="M4,0 L20,0 C22.209139,-4.05812251e-16 24,1.790861 24,4 L24,20 C24,22.209139 22.209139,24 20,24 L4,24 C1.790861,24 2.705415e-16,22.209139 0,20 L0,4 C-2.705415e-16,1.790861 1.790861,4.05812251e-16 4,0 Z M4,2 C2.8954305,2 2,2.8954305 2,4 L2,20 C2,21.1045695 2.8954305,22 4,22 L20,22 C21.1045695,22 22,21.1045695 22,20 L22,4 C22,2.8954305 21.1045695,2 20,2 L4,2 Z M5,0 L19,0 L19,8 L5,8 L5,0 Z M7,2 L7,6 L17,6 L17,2 L7,2 Z"/>
<path d="M12,20 C9.23857625,20 7,17.7614237 7,15 C7,12.2385763 9.23857625,10 12,10 C14.7614237,10 17,12.2385763 17,15 C17,17.7614237 14.7614237,20 12,20 Z M12,18 C13.6568542,18 15,16.6568542 15,15 C15,13.3431458 13.6568542,12 12,12 C10.3431458,12 9,13.3431458 9,15 C9,16.6568542 10.3431458,18 12,18 Z"/>
</svg>