<svg xmlns="http://www.w3.org/2000/svg" width="16" height="16" viewBox="0 0 40 40"><path d="M3.938 18.468v5.187a.77.77 0 0 1-.773.773.77.77 0 0 1-.772-.773v-5.187a.77.77 0 0 1 .772-.773.77.77 0 0 1 .773.773zm-.773-1.547c-.586 0-.915-.344-.915-.902 0-.66.329-.946.915-.946.601 0 .93.287.93.946 0 .558-.329.902-.93.902zm2.66 2.178h-.3a.641.641 0 0 1-.643-.645c0-.358.286-.645.643-.645h.3v-.773c0-1.333.887-2.536 2.733-2.536a.672.672 0 1 1 0 1.347c-.787 0-1.188.444-1.188 1.074v.888h.959c.357 0 .643.287.643.645a.641.641 0 0 1-.643.645H7.37v4.584c0 .43-.343.745-.772.745-.458 0-.772-.315-.772-.745V19.1zm5.693-.63v.071c.272-.559.944-.917 1.545-.917.4 0 .73.33.73.73 0 .402-.33.732-.73.732-.987 0-1.545.63-1.545 1.59v2.98a.77.77 0 0 1-.772.773.77.77 0 0 1-.773-.773v-5.187a.77.77 0 0 1 .773-.773.77.77 0 0 1 .772.773zm5.507.515c-.63 0-1.073.287-1.43.545a.674.674 0 0 1-.43.143.672.672 0 0 1-.672-.673.71.71 0 0 1 .186-.473c.4-.444 1.116-.917 2.346-.917 1.773 0 2.832.874 2.832 2.392v3.668c0 .416-.344.76-.758.76a.764.764 0 0 1-.758-.76c-.387.616-1.016.831-1.874.831-1.402 0-2.331-.874-2.331-2.163 0-1.333 1.072-2.02 2.317-2.02h1.873v-.258c0-.645-.472-1.075-1.301-1.075zm-.158 4.227c.758 0 1.46-.488 1.46-1.29v-.4h-1.674c-.63 0-.973.3-.973.816 0 .544.386.874 1.187.874zm11.886-5.602c1.945 0 2.474 1.246 2.474 2.493v3.581c0 .43-.343.745-.772.745-.458 0-.772-.315-.772-.745v-3.295c0-.816-.33-1.375-1.259-1.375-1.03 0-1.43.559-1.43 1.36v3.31c0 .43-.344.745-.773.745-.457 0-.772-.315-.772-.745v-3.295c0-.816-.329-1.375-1.259-1.375-1.072 0-1.43.63-1.43 1.476v3.194c0 .43-.329.745-.772.745-.444 0-.773-.315-.773-.745v-5.215a.77.77 0 0 1 .773-.773.77.77 0 0 1 .772.773c.272-.415.873-.86 1.83-.86 1.174 0 1.76.373 2.118.932.457-.616 1.072-.931 2.045-.931zm3.547 3.424c0-2.192 1.144-3.424 3.09-3.424 2.417 0 2.86 1.862 2.86 2.85 0 .531 0 1.147-.872 1.147h-3.533c0 1.032.73 1.504 1.673 1.504.63 0 1.073-.215 1.416-.444.157-.1.272-.157.458-.157.372 0 .672.3.672.673 0 .23-.114.415-.243.53-.243.23-1.001.788-2.303.788-1.988 0-3.218-1.074-3.218-3.467zm3.09-2.106c-.83 0-1.43.473-1.502 1.39h2.832c0-.702-.4-1.39-1.33-1.39zM2 7a1 1 0 1 1-2 0V3a3 3 0 0 1 3-3h4a1 1 0 1 1 0 2H3a1 1 0 0 0-1 1v4zm0 26v4a1 1 0 0 0 1 1h4a1 1 0 0 1 0 2H3a3 3 0 0 1-3-3v-4a1 1 0 0 1 2 0zM33 2a1 1 0 0 1 0-2h4a3 3 0 0 1 3 3v4a1 1 0 0 1-2 0V3a1 1 0 0 0-1-1h-4zm0 36h4a1 1 0 0 0 1-1v-4a1 1 0 0 1 2 0v4a3 3 0 0 1-3 3h-4a1 1 0 0 1 0-2z"/></svg>