<svg xmlns="http://www.w3.org/2000/svg" width="16" height="16" viewBox="0 0 40 40"><path d="M8.11 17H2a2 2 0 0 1-2-2V8.5C.79 7.758 2.45 6.147 2.78 5.77c.37-.42.747-.864 1.129-1.329-.632.442-1.104.8-1.415 1.073-.31.273-1.142 1.034-2.494 2.283V2a2 2 0 0 1 2-2h13a2 2 0 0 1 2 2v13a2 2 0 0 1-2 2H8.742L9 16.998c1.115-1.105 1.861-1.846 2.239-2.222.377-.376.818-.887 1.322-1.533-.646.454-1.2.882-1.66 1.283-.353.307-2.134 1.86-2.801 2.472 0 .001.003.002.01.002zm2.248-5.987l1.783 1.835a.5.5 0 0 0 .427.147c.663-.09.986-.766 1.152-1.942.166-1.17.124-6.427.08-6.998-.037-.49-.242-.894-.78-.9-2.214-.027-3.611.051-5.72.147-1.105.05-1.992.165-2.738.385a.5.5 0 0 0-.327.305c-.135.363-.067.725.22.975.087.075.66.685 1.646 1.758L2.506 10.33a.5.5 0 0 0-.073.612c.383.633.932 1.286 1.647 1.965.703.666 1.389 1.229 2.058 1.687a.5.5 0 0 0 .633-.056l3.587-3.525zm20.3 12.15l1.9-1.9-2.845-2.827-1.893 1.896 2.839 2.832zm-1.427 1.43l-2.84-2.832-8.639 8.649-.526 3.365 3.371-.539 8.634-8.643zm-7.433 10.3c-.15.151-.345.25-.556.284l-5.07.81a1.01 1.01 0 0 1-1.16-1.152l.792-5.06c.033-.211.132-.406.283-.557l12.907-12.921a1.013 1.013 0 0 1 1.43-.003l4.278 4.251c.396.393.397 1.032.003 1.427L21.798 34.893zM37 12a3 3 0 0 1 3 3v22a3 3 0 0 1-3 3H11a3 3 0 0 1-3-3V21.045C8 20.448 8.448 20 9 20a1 1 0 0 1 1 1v16a1 1 0 0 0 1 1h26a1 1 0 0 0 1-1V15a1 1 0 0 0-1-1H21a1 1 0 0 1 0-2h16z"/></svg>