<svg xmlns="http://www.w3.org/2000/svg" width="16" height="16" viewBox="0 0 40 40"><path d="M9 0C6.555 0 6.25.011 5.29.054 4.33.099 3.679.25 3.105.472A4.407 4.407 0 0 0 1.51 1.51c-.5.5-.809 1.003-1.038 1.595C.25 3.679.098 4.331.054 5.29.009 6.25 0 6.555 0 9c0 2.445.011 2.75.054 3.71.045.958.196 1.611.418 2.185.23.591.538 1.094 1.038 1.595.5.499 1.003.809 1.595 1.038.575.222 1.227.374 2.185.418.96.045 1.265.054 3.71.054 2.445 0 2.75-.011 3.71-.054.958-.045 1.611-.197 2.185-.419a4.424 4.424 0 0 0 1.595-1.038c.499-.5.809-1 1.038-1.594.222-.574.374-1.227.418-2.185.045-.96.054-1.265.054-3.71 0-2.445-.011-2.75-.054-3.71-.045-.958-.197-1.612-.419-2.185A4.417 4.417 0 0 0 16.49 1.51c-.5-.5-1-.809-1.594-1.038C14.321.25 13.668.098 12.71.054 11.75.009 11.445 0 9 0zm0 1.62c2.402 0 2.689.012 3.637.053.878.041 1.354.187 1.67.311.422.163.72.358 1.037.672.315.315.51.615.672 1.036.123.317.27.793.31 1.67.043.95.052 1.235.052 3.638 0 2.403-.01 2.689-.055 3.637-.046.878-.192 1.354-.316 1.67-.168.422-.359.72-.674 1.037-.314.315-.618.51-1.035.672-.315.123-.799.27-1.676.31-.956.043-1.237.052-3.645.052s-2.689-.01-3.644-.055c-.878-.046-1.362-.192-1.677-.316a2.787 2.787 0 0 1-1.034-.674 2.733 2.733 0 0 1-.675-1.035c-.124-.315-.27-.799-.315-1.676-.034-.945-.046-1.237-.046-3.633 0-2.397.012-2.69.046-3.646.046-.878.191-1.36.315-1.675.157-.428.36-.72.675-1.036a2.662 2.662 0 0 1 1.034-.674c.315-.124.788-.27 1.666-.315.956-.034 1.237-.046 3.644-.046L9 1.62zm0 2.758a4.621 4.621 0 1 0 0 9.243 4.621 4.621 0 0 0 0-9.243zM9 12a3 3 0 1 1 0-6 3 3 0 1 1 0 6zm5.884-7.804a1.08 1.08 0 0 1-2.16 0 1.08 1.08 0 0 1 2.16 0zM38 32.366V15a1 1 0 0 0-1-1H22a1 1 0 0 1 0-2h15a3 3 0 0 1 3 3v22a3 3 0 0 1-3 3H11a3 3 0 0 1-3-3V22.045C8 21.448 8.448 21 9 21a1 1 0 0 1 1 1v8.008l5.832-4.727a2.333 2.333 0 0 1 3.143.132l5.606 5.568 5.213-2.127a2.349 2.349 0 0 1 1.964.094L38 32.365zm0 2.28l-7.174-3.928a.333.333 0 0 0-.276-.012l-6.44 2.627-6.544-6.5a.338.338 0 0 0-.462-.01L10 32.584V37a1 1 0 0 0 1 1h26a1 1 0 0 0 1-1v-2.355zM30 26a5 5 0 1 1 0-10 5 5 0 0 1 0 10zm0-2a3 3 0 1 0 0-6 3 3 0 0 0 0 6z"/></svg>