<svg xmlns="http://www.w3.org/2000/svg" width="16" height="16" viewBox="0 0 24 24">
<path d="M5.41292041,11 L21,11 C21.5522847,11 22,11.4477153 22,12 C22,12.5522847 21.5522847,13 21,13 L5.41292041,13 L8.7073746,16.2944542 C9.0975418,16.6846214 9.0975418,17.3172074 8.7073746,17.7073746 C8.3172074,18.0975418 7.68462139,18.0975418 7.29445419,17.7073746 L2.2926254,12.7055458 C1.9024582,12.3153786 1.9024582,11.6827926 2.2926254,11.2926254 C2.30478581,11.280465 2.31718171,11.2686836 2.32979841,11.2572812 L7.29445419,6.2926254 C7.68462139,5.9024582 8.3172074,5.9024582 8.7073746,6.2926254 C9.0975418,6.6827926 9.0975418,7.31537861 8.7073746,7.70554581 L5.41292041,11 Z"/>
</svg>