<svg xmlns="http://www.w3.org/2000/svg" width="16" height="16" viewBox="0 0 24 24"><path d="M7.521 10H21.48c.84 0 1.521.672 1.521 1.5s-.681 1.5-1.521 1.5H7.52A1.51 1.51 0 0 1 6 11.5c0-.828.681-1.5 1.521-1.5zm0 8H21.48c.84 0 1.521.672 1.521 1.5s-.681 1.5-1.521 1.5H7.52A1.51 1.51 0 0 1 6 19.5c0-.828.681-1.5 1.521-1.5zm0-16H21.48C22.319 2 23 2.672 23 3.5S22.319 5 21.479 5H7.52A1.51 1.51 0 0 1 6 3.5C6 2.672 6.681 2 7.521 2zM2.5 5a1.5 1.5 0 1 1 0-3 1.5 1.5 0 0 1 0 3zm0 16a1.5 1.5 0 1 1 0-3 1.5 1.5 0 0 1 0 3zm0-8a1.5 1.5 0 1 1 0-3 1.5 1.5 0 0 1 0 3z"/></svg>