<?xml version="1.0" encoding="UTF-8" standalone="no"?>
<svg width="20px" height="12px" viewBox="0 0 20 12" version="1.1" xmlns="http://www.w3.org/2000/svg" xmlns:xlink="http://www.w3.org/1999/xlink">
    <!-- Generator: Sketch 48.2 (47327) - http://www.bohemiancoding.com/sketch -->
    <title>list</title>
    <desc>Created with Sketch.</desc>
    <defs></defs>
    <g id="Artboard-2" stroke="none" stroke-width="1" fill="none" fill-rule="evenodd" transform="translate(-554.000000, -342.000000)">
        <g id="list" transform="translate(552.000000, 336.000000)">
            <rect id="24x24" x="0" y="0" width="24" height="24"></rect>
            <g id="Icon-24px" transform="translate(2.000000, 6.000000)" fill="#000000">
                <path d="M0,7.2 L2.22222222,7.2 L2.22222222,4.8 L0,4.8 L0,7.2 L0,7.2 Z M0,12 L2.22222222,12 L2.22222222,9.6 L0,9.6 L0,12 L0,12 Z M0,2.4 L2.22222222,2.4 L2.22222222,0 L0,0 L0,2.4 L0,2.4 Z M4.44444444,7.2 L20,7.2 L20,4.8 L4.44444444,4.8 L4.44444444,7.2 L4.44444444,7.2 Z M4.44444444,12 L20,12 L20,9.6 L4.44444444,9.6 L4.44444444,12 L4.44444444,12 Z M4.44444444,0 L4.44444444,2.4 L20,2.4 L20,0 L4.44444444,0 L4.44444444,0 Z" id="Shape"></path>
            </g>
        </g>
    </g>
</svg>