<svg xmlns="http://www.w3.org/2000/svg" width="16" height="16" viewBox="0 0 24 24">
<path d="M6,8 C6,4.6862915 8.6862915,2 12,2 C15.3137085,2 18,4.6862915 18,8 C18,9.07596436 17.7338811,10.1151192 17.2208295,10.9589636 C16.6993717,11.8166341 15.2160927,13.9985082 13.7999878,17.5045859 C13.4324828,18.4144767 12.9849386,19.9799785 12.4573551,22.2010913 C12.2847822,22.6067781 11.709778,22.6068036 11.5371691,22.2011322 C11.007947,19.9932808 10.562228,18.4360814 10.2000122,17.5295339 C8.78159271,13.9795383 7.31149449,11.7747564 6.75454896,10.9151881 C6.23709618,10.1165714 6,9.05803049 6,8 Z M12,10.5 C13.3807119,10.5 14.5,9.38071187 14.5,8 C14.5,6.61928813 13.3807119,5.5 12,5.5 C10.6192881,5.5 9.5,6.61928813 9.5,8 C9.5,9.38071187 10.6192881,10.5 12,10.5 Z"/>
</svg>