<svg xmlns="http://www.w3.org/2000/svg" width="16" height="16" viewBox="0 0 24 24"><path d="M5 8a7 7 0 1 1 14 0c0 1.264-.318 2.48-.925 3.478-.074.123-.434.697-.514.826a35.44 35.44 0 0 0-2.834 5.575c-.344.851-.78 2.378-1.297 4.553l-.052.16c-.518 1.218-2.243 1.218-2.761 0l-.052-.158c-.519-2.164-.954-3.683-1.294-4.533a35.634 35.634 0 0 0-2.086-4.37A32.567 32.567 0 0 0 6.15 11.82l-.234-.36C5.305 10.519 5 9.293 5 8zm7.873 9.13a37.432 37.432 0 0 1 2.988-5.88c.086-.14.44-.702.505-.81.41-.674.634-1.531.634-2.44A5 5 0 0 0 7 8c0 .932.212 1.783.594 2.371l.235.364c.108.166.207.323.31.486.264.424.523.858.788 1.326a37.629 37.629 0 0 1 2.202 4.611c.256.641.543 1.562.866 2.77.325-1.221.617-2.151.878-2.798zM12 11a3 3 0 1 1 0-6 3 3 0 0 1 0 6zm0-2a1 1 0 1 0 0-2 1 1 0 0 0 0 2z"/></svg>