<svg xmlns="http://www.w3.org/2000/svg" width="16" height="16" viewBox="0 0 24 24">
<path d="M4,5 C2.8954305,5 2,5.8954305 2,7 L2,17 C2,18.1045695 2.8954305,19 4,19 L20,19 C21.1045695,19 22,18.1045695 22,17 L22,7 C22,5.8954305 21.1045695,5 20,5 L4,5 Z M4,3 L20,3 C22.209139,3 24,4.790861 24,7 L24,17 C24,19.209139 22.209139,21 20,21 L4,21 C1.790861,21 2.96059473e-16,19.209139 0,17 L0,7 C-2.96059473e-16,4.790861 1.790861,3 4,3 Z"/>
<path d="M14.1066449,13.4799163 L12.6663638,14.7889661 C12.2848,15.1357637 11.7021074,15.1355917 11.3207484,14.788569 L9.88782225,13.4846587 L2.39153477,19.910048 L1.08995202,18.3915348 L8.39716167,12.1282122 L0.826973985,5.23961881 L2.17302601,3.76038119 L11.9941733,12.6972654 L21.8274107,3.75998407 L23.1725893,5.24001593 L15.5982158,12.12425 L22.910048,18.3915348 L21.6084652,19.910048 L14.1066449,13.4799163 Z"/">
</svg>