<svg xmlns="http://www.w3.org/2000/svg" width="16" height="16" viewBox="0 0 24 24">
<path d="M12,24 C5.37282051,24 0,18.6271795 0,12 C0,5.37282051 5.37282051,0 12,0 C18.6271795,0 24,5.37282051 24,12 C24,18.6271795 18.6271795,24 12,24 Z M12,22 C17.52261,22 22,17.52261 22,12 C22,6.47739001 17.52261,2 12,2 C6.47739001,2 2,6.47739001 2,12 C2,17.52261 6.47739001,22 12,22 Z"/>
<path d="M7,13 C6.44771525,13 6,12.5522847 6,12 C6,11.4477153 6.44771525,11 7,11 L17,11 C17.5522847,11 18,11.4477153 18,12 C18,12.5522847 17.5522847,13 17,13 L7,13 Z"/>
</svg>