<?xml version="1.0" encoding="UTF-8" standalone="no"?>
<svg width="22px" height="22px" viewBox="0 0 22 22" version="1.1" xmlns="http://www.w3.org/2000/svg" xmlns:xlink="http://www.w3.org/1999/xlink">
    <!-- Generator: Sketch 48.2 (47327) - http://www.bohemiancoding.com/sketch -->
    <title>move</title>
    <desc>Created with Sketch.</desc>
    <defs></defs>
    <g id="Artboard-2" stroke="none" stroke-width="1" fill="none" fill-rule="evenodd" transform="translate(-337.000000, -625.000000)">
        <g id="move" transform="translate(336.000000, 624.000000)">
            <polygon id="Shape" points="0 0 24 0 24 24 0 24"></polygon>
            <g id="Icon-24px" transform="translate(1.000000, 1.000000)" fill="#000000">
                <polygon id="Combined-Shape" points="10 10 10 4 7 4 11 0 15 4 12 4 12 10 18 10 18 7 22 11 18 15 18 12 12 12 12 18 15 18 11 22 7 18 10 18 10 12 4 12 4 15 0 11 4 7 4 10"></polygon>
            </g>
        </g>
    </g>
</svg>