<svg xmlns="http://www.w3.org/2000/svg" width="16" height="16" viewBox="0 0 24 24"><path d="M16.352 15.923v-5.438a4.364 4.364 0 0 0-3.263-4.227 6.026 6.026 0 0 0-1.077-.096c-.363 0-.73.032-1.1.096a4.364 4.364 0 0 0-3.264 4.227v5.438L6.468 17.5h11.065l-1.18-1.577zm-5.94-12.332C10.412 2.712 11.122 2 12 2a1.59 1.59 0 0 1 1.588 1.59v.732a6.364 6.364 0 0 1 4.764 6.163v4.773l2.541 3.394a.53.53 0 0 1-.423.848H3.53a.53.53 0 0 1-.423-.848l2.54-3.394v-4.773a6.364 6.364 0 0 1 4.765-6.163V3.59zM14 20.5a2 2 0 1 1-4 0h4z"/></svg>