<svg xmlns="http://www.w3.org/2000/svg" width="16" height="16" viewBox="0 0 24 24">
<path d="M4,5 C2.8954305,5 2,5.8954305 2,7 L2,17 C2,18.1045695 2.8954305,19 4,19 L20,19 C21.1045695,19 22,18.1045695 22,17 L22,7 C22,5.8954305 21.1045695,5 20,5 L4,5 Z M4,3 L20,3 C22.209139,3 24,4.790861 24,7 L24,17 C24,19.209139 22.209139,21 20,21 L4,21 C1.790861,21 2.96059473e-16,19.209139 0,17 L0,7 C-2.96059473e-16,4.790861 1.790861,3 4,3 Z"/>
<path d="M17.5,13 C15.5670034,13 14,11.4329966 14,9.5 C14,7.56700338 15.5670034,6 17.5,6 C19.4329966,6 21,7.56700338 21,9.5 C21,11.4329966 19.4329966,13 17.5,13 Z M17.5,11 C18.3284271,11 19,10.3284271 19,9.5 C19,8.67157288 18.3284271,8 17.5,8 C16.6715729,8 16,8.67157288 16,9.5 C16,10.3284271 16.6715729,11 17.5,11 Z" id="Oval-4"/>
<path d="M6.94993104,13.404319 L1.66337028,17.8368455 C1.24016065,18.1916863 0.609426082,18.1362625 0.254585199,17.7130529 C-0.100255685,17.2898433 -0.0448318629,16.6591087 0.378377769,16.3042678 L6.36446175,11.2852248 C6.76067881,10.9530159 7.34481266,10.9776399 7.71166547,11.3420157 L12.2680942,15.8676794 L16.6378198,14.0852955 C16.906091,13.9758694 17.2086346,13.9881744 17.4671333,14.1190253 L23.4862983,17.1659003 C23.9790496,17.4153289 24.1763017,18.0169845 23.9268731,18.5097358 C23.6774446,19.0024871 23.0757889,19.1997392 22.5830376,18.9503106 L16.9708367,16.1094391 L12.4106421,17.969514 C12.0390983,18.1210644 11.6129471,18.0358504 11.3282515,17.7530771 L6.94993104,13.404319 Z"/>
</svg>