<svg xmlns="http://www.w3.org/2000/svg" width="16" height="16" viewBox="0 0 24 24"><path d="M11.47 14.561l-6.123 6.122a1.082 1.082 0 0 1-1.53-1.53l6.122-6.122-2.678-2.679a.541.541 0 0 1 0-.765l.23-.23a.539.539 0 0 1 .229-.136c1.194-.443 1.782-.444 2.984-.017.755-.264 2.452-1.304 3.635-2.487l.765-.765c.846-.845 1.04-1.612.957-2.105a1.082 1.082 0 0 1 1.53-1.53l4.592 4.591a1.082 1.082 0 0 1-1.53 1.531c-.483-.122-1.26.111-2.105.957l-.765.765c-1.185 1.185-2.225 2.88-2.487 3.635.417 1.184.417 1.758-.005 2.938a.539.539 0 0 1-.148.276l-.23.23a.541.541 0 0 1-.765 0l-2.679-2.679z"/></svg>