<svg xmlns="http://www.w3.org/2000/svg" width="16" height="16" viewBox="0 0 40 40"><path d="M24.044 26.833c-3.217 0-5.833-2.43-5.833-5.416 0-2.987 2.616-5.417 5.833-5.417s5.833 2.43 5.833 5.417c0 2.987-2.616 5.416-5.833 5.416zM24 17.667c-2.297 0-4.167 1.682-4.167 3.75 0 2.067 1.87 3.75 4.167 3.75 2.297 0 4.167-1.683 4.167-3.75 0-2.068-1.87-3.75-4.167-3.75zM32.421 36H15.58c-.87 0-1.579-.701-1.579-1.563 0-.07.015-1.755 1.29-3.437.742-.98 1.757-1.757 3.02-2.311 1.54-.679 3.455-1.022 5.69-1.022 2.235 0 4.15.343 5.69 1.022 1.263.555 2.278 1.332 3.02 2.311 1.275 1.682 1.29 3.367 1.29 3.438 0 .861-.708 1.562-1.579 1.562zM24 29.333c-3.419 0-5.941.795-7.295 2.297-1.015 1.126-1.037 2.277-1.038 2.288 0 .23.22.415.49.415h15.686c.27 0 .49-.186.49-.416 0-.01-.022-1.161-1.038-2.287-1.355-1.502-3.877-2.297-7.295-2.297zM37 12a3 3 0 0 1 3 3v22a3 3 0 0 1-3 3H11a3 3 0 0 1-3-3V22.045C8 21.448 8.448 21 9 21a1 1 0 0 1 1 1v15a1 1 0 0 0 1 1h26a1 1 0 0 0 1-1V15a1 1 0 0 0-1-1H21.504a1 1 0 0 1 0-2H37zM8.991 0l-.024.02c4.955 0 8.989 4.023 8.989 8.99 0 4.966-4.034 8.99-8.989 8.99a9.02 9.02 0 0 1-2.663-.401c.371-.596.922-1.576 1.124-2.36l.562-2.136c.303.563 1.158 1.034 2.068 1.034 2.72 0 4.675-2.495 4.675-5.596 0-2.967-2.426-5.192-5.544-5.192-3.879 0-5.94 2.607-5.94 5.439 0 1.326.704 2.967 1.825 3.484.171.08.26.045.3-.123.031-.123.184-.741.251-1.023a.274.274 0 0 0-.064-.258c-.371-.449-.667-1.282-.667-2.056 0-1.978 1.5-3.9 4.057-3.9 2.209 0 3.756 1.506 3.756 3.652 0 2.432-1.23 4.116-2.826 4.116-.881 0-1.545-.73-1.331-1.624.254-1.069.744-2.222.744-2.994 0-.69-.37-1.266-1.139-1.266-.9 0-1.625.936-1.625 2.183 0 .796.269 1.336.269 1.336l-1.055 4.468c-.18.777-.11 1.867-.03 2.579A8.99 8.99 0 0 1 8.99 0z"/></svg>