<svg xmlns="http://www.w3.org/2000/svg" width="16" height="16" viewBox="0 0 40 40"><path d="M37 12a3 3 0 0 1 3 3v22a3 3 0 0 1-3 3H11a3 3 0 0 1-3-3V22.045C8 21.448 8.448 21 9 21a1 1 0 0 1 1 1v15a1 1 0 0 0 1 1h26a1 1 0 0 0 1-1V15a1 1 0 0 0-1-1H21.502a1 1 0 1 1 0-2H37zM22.389 29.222l-6.444 6.444a1.14 1.14 0 0 1-1.611-1.61l6.444-6.445-2.82-2.82a.57.57 0 0 1 0-.805l.242-.241a.567.567 0 0 1 .242-.144l-.002-.002a5.648 5.648 0 0 1 3.874-.005c.795-.279 2.052-1.182 3.297-2.427l.806-.806c.89-.89 1.25-1.971.805-2.416a1.14 1.14 0 0 1 1.611-1.611l4.833 4.833a1.14 1.14 0 0 1-1.61 1.61c-.446-.444-1.528-.083-2.417.806l-.806.806c-1.248 1.248-2.152 2.507-2.428 3.302.439 1.246.45 2.576.006 3.818a.567.567 0 0 1-.156.29l-.241.242a.57.57 0 0 1-.806 0l-2.82-2.819zM8.99 0l-.024.02c4.955 0 8.989 4.023 8.989 8.99 0 4.966-4.034 8.99-8.989 8.99a9.02 9.02 0 0 1-2.663-.401c.371-.596.922-1.576 1.124-2.36l.562-2.136c.303.563 1.158 1.034 2.068 1.034 2.72 0 4.675-2.495 4.675-5.596 0-2.967-2.426-5.192-5.544-5.192-3.879 0-5.94 2.607-5.94 5.439 0 1.326.704 2.967 1.825 3.484.171.08.26.045.3-.123.031-.123.184-.741.251-1.023a.274.274 0 0 0-.064-.258c-.371-.449-.667-1.282-.667-2.056 0-1.978 1.5-3.9 4.057-3.9 2.209 0 3.756 1.506 3.756 3.652 0 2.432-1.23 4.116-2.826 4.116-.881 0-1.545-.73-1.331-1.624.254-1.069.744-2.222.744-2.994 0-.69-.37-1.266-1.139-1.266-.9 0-1.625.936-1.625 2.183 0 .796.269 1.336.269 1.336l-1.055 4.468c-.18.777-.11 1.867-.03 2.579A8.99 8.99 0 0 1 8.99 0z"/></svg>