<svg xmlns="http://www.w3.org/2000/svg" width="16" height="16" viewBox="0 0 24 24">
<path d="M12,24 C5.37282051,24 0,18.6271795 0,12 C0,5.37282051 5.37282051,0 12,0 C18.6271795,0 24,5.37282051 24,12 C24,18.6271795 18.6271795,24 12,24 Z M10.5,10.5 L6.5,10.5 C5.67157288,10.5 5,11.1715729 5,12 C5,12.8284271 5.67157288,13.5 6.5,13.5 L10.5,13.5 L10.5,17.5 C10.5,18.3284271 11.1715729,19 12,19 C12.8284271,19 13.5,18.3284271 13.5,17.5 L13.5,13.5 L17.5,13.5 C18.3284271,13.5 19,12.8284271 19,12 C19,11.1715729 18.3284271,10.5 17.5,10.5 L13.5,10.5 L13.5,6.5 C13.5,5.67157288 12.8284271,5 12,5 C11.1715729,5 10.5,5.67157288 10.5,6.5 L10.5,10.5 Z"/>
</svg>