<?xml version="1.0" encoding="UTF-8" standalone="no"?>
<svg width="20px" height="20px" viewBox="0 0 20 20" version="1.1" xmlns="http://www.w3.org/2000/svg" xmlns:xlink="http://www.w3.org/1999/xlink">
    <!-- Generator: Sketch 48.2 (47327) - http://www.bohemiancoding.com/sketch -->
    <title>plus-sign</title>
    <desc>Created with Sketch.</desc>
    <defs></defs>
    <g id="Artboard-2" stroke="none" stroke-width="1" fill="none" fill-rule="evenodd" transform="translate(-410.000000, -338.000000)">
        <g id="plus-sign" transform="translate(409.000000, 336.000000)">
            <rect id="24x24" x="0" y="0" width="24" height="24"></rect>
            <path d="M5.98380793,3.3400335 C7.51870463,2.44667783 9.19095477,2 11,2 C12.8096036,2 14.4812954,2.44667783 16.0167504,3.3400335 C17.5522055,4.23338917 18.7666108,5.44779453 19.6599665,6.98324958 C20.5533222,8.51870463 21,10.1909548 21,12 C21,13.8090452 20.5533222,15.4812954 19.6599665,17.0167504 C18.7666108,18.5522055 17.5522055,19.7666108 16.0167504,20.6599665 C14.4812954,21.5533222 12.8096036,22 11,22 C9.19095477,22 7.51870463,21.5533222 5.98380793,20.6599665 C4.44779453,19.7666108 3.23338917,18.5522055 2.34059185,17.0167504 C1.44667783,15.4812954 1,13.8090452 1,12 C1,10.1909548 1.44667783,8.51870463 2.34059185,6.98324958 C3.23338917,5.44779453 4.44779453,4.23338917 5.98380793,3.3400335 C5.98380793,3.3400335 4.44779453,4.23338917 5.98380793,3.3400335 L5.98380793,3.3400335 L5.98380793,3.3400335 Z M9.32495812,6.97487437 L9.32495812,10.3249581 L5.97487437,10.3249581 L5.97487437,13.6750419 L9.32495812,13.6750419 L9.32495812,17.0251256 L12.6750419,17.0251256 L12.6750419,13.6750419 L16.0251256,13.6750419 L16.0251256,10.3249581 L12.6750419,10.3249581 L12.6750419,6.97487437 L9.32495812,6.97487437 L9.32495812,6.97487437 Z" id="Fill-83" fill="#231F20"></path>
        </g>
    </g>
</svg>