<svg xmlns="http://www.w3.org/2000/svg" width="16" height="16" viewBox="0 0 24 24"><path d="M4.96 8.396l7.13 5.017 7.132-5.017-7.131-5.017-7.13 5.017zm8.211-6.081l7.563 5.32c.597.42.597 1.101 0 1.521l-7.563 5.32c-.596.42-1.564.42-2.16 0l-7.563-5.32c-.597-.42-.597-1.1 0-1.52l7.562-5.321c.597-.42 1.565-.42 2.161 0zm-7.563 9.273l-.648.457 7.13 5.016 7.132-5.016-.649-.457 1.297-.912.648.456c.716.504.716 1.32 0 1.825l-7.13 5.017c-.717.503-1.878.503-2.594 0l-7.13-5.017c-.716-.504-.716-1.32 0-1.825l.648-.456 1.296.912zm0 3.65l-.648.455 7.13 5.017 7.132-5.017-.649-.456 1.297-.912.648.456c.716.504.716 1.32 0 1.824l-7.13 5.017c-.717.504-1.878.504-2.594 0l-7.13-5.017c-.716-.503-.716-1.32 0-1.824l.648-.456 1.296.912z"/></svg>