<svg xmlns="http://www.w3.org/2000/svg" width="16" height="16" viewBox="0 0 24 24"><path d="M3.5 7.292a2.5 2.5 0 0 1 0-4.584V2a1 1 0 1 1 2 0v.708a2.5 2.5 0 0 1 0 4.584v2.416a2.5 2.5 0 0 1 0 4.584v2.416a2.5 2.5 0 0 1 0 4.584V22a1 1 0 0 1-2 0v-.708a2.5 2.5 0 0 1 0-4.584v-2.416a2.5 2.5 0 0 1 0-4.584V7.292zM4.5 20a1 1 0 1 0 0-2 1 1 0 0 0 0 2zm0-7a1 1 0 1 0 0-2 1 1 0 0 0 0 2zm0-7a1 1 0 1 0 0-2 1 1 0 0 0 0 2zm6 11.5h10a1.5 1.5 0 0 1 0 3h-10a1.5 1.5 0 0 1 0-3zm0-7h10a1.5 1.5 0 0 1 0 3h-10a1.5 1.5 0 0 1 0-3zm0-7h10a1.5 1.5 0 0 1 0 3h-10a1.5 1.5 0 0 1 0-3z"/></svg>