<svg xmlns="http://www.w3.org/2000/svg" width="16" height="16" viewBox="0 0 24 24">
<path d="M10.1426087,7.66782609 C10.1426087,7.66782609 7.57565217,7.66782609 7.58608696,7.66782609 C7.58608696,7.66782609 6.44869565,7.56347826 6.4173913,8.53391304 L6.4173913,15.4521739 C6.4173913,15.9843478 5.84347826,16.5165217 5.28,16.5165217 L5.14434783,16.5165217 C4.61217391,16.5165217 4.00695652,16.0156522 4.00695652,15.4521739 L4.00695652,8.63826087 C4.03826087,7.59478261 2.86956522,7.69913043 2.83826087,7.69913043 L0.333913043,7.69913043 C0.135652174,7.69913043 0,7.53217391 0,7.36521739 C0,7.16695652 0.135652174,7.03130435 0.333913043,7 L10.1426087,7 C10.3408696,7 10.4765217,7.16695652 10.4765217,7.33391304 C10.4765217,7.53217391 10.3095652,7.66782609 10.1426087,7.66782609 Z M16.0591304,8.89913043 C16.5913043,8.89913043 17.0608696,9.36869565 17.04,9.90086957 L17.04,15.2956522 C17.04,15.8278261 16.6643478,16.36 16.1008696,16.36 L15.8713043,16.36 C15.3078261,16.36 14.8695652,15.9321739 14.8695652,15.2956522 L14.8695652,13.0626087 C14.8695652,12.6973913 14.7652174,12.4991304 14.4313043,12.4991304 C14.16,12.4991304 14.066087,12.666087 13.9617391,12.8330435 L13.7321739,13.3026087 L12.333913,16.0365217 C12.1356522,16.4330435 11.8330435,16.506087 11.666087,16.4017391 C11.6034783,16.3704348 11.4678261,16.266087 11.3321739,16.0678261 C11.3321739,16.0678261 9.86086957,13.333913 9.55826087,12.8330435 C9.25565217,12.3321739 8.58782609,12.5304348 8.58782609,13.1982609 C8.58782609,13.866087 8.58782609,15.973913 8.58782609,15.973913 C8.58782609,16.2452174 8.38956522,16.4434783 8.11826087,16.4434783 C7.84695652,16.4434783 7.64869565,16.2452174 7.64869565,15.973913 L7.64869565,9.86956522 C7.64869565,9.4 7.84695652,8.96173913 8.21217391,8.76347826 C8.5773913,8.56521739 9.44347826,8.36695652 9.88173913,9.20173913 L11.4886957,12.28 C11.6243478,12.5408696 11.8852174,13.0104348 11.9895652,13.146087 C12.1252174,13.386087 12.5217391,13.9182609 12.8556522,13.2817391 C13.1269565,12.7808696 13.4921739,12.0713043 13.6904348,11.6747826 L14.7547826,9.56695652 C14.786087,9.50434783 14.8591304,9.43130435 14.8904348,9.36869565 C15.0573913,9.0973913 15.36,8.89913043 15.7252174,8.89913043 L16.0591304,8.89913043 Z M23.6973913,15.8069565 C23.8643478,15.8069565 24,15.973913 24,16.213913 C24,16.4121739 23.8643478,16.5478261 23.6973913,16.5478261 L19.4608696,16.5478261 C18.8973913,16.5478261 18.2608696,16.5895652 18.0626087,16.3182609 C17.6973913,15.8486957 18.093913,15.1182609 18.2295652,14.8469565 C18.333913,14.68 18.4382609,14.5130435 18.5008696,14.346087 L20.5043478,10.0052174 L20.5043478,9.90086957 C20.5043478,9.7026087 20.3686957,9.56695652 20.2017391,9.53565217 L18.2608696,9.53565217 C18.093913,9.53565217 17.9582609,9.36869565 17.9582609,9.20173913 C17.9582609,9.00347826 18.093913,8.86782609 18.2608696,8.86782609 L23.0191304,8.86782609 C23.186087,8.86782609 23.3217391,9.03478261 23.3217391,9.20173913 C23.3217391,9.24347826 23.3217391,9.27478261 23.3217391,9.30608696 C23.3217391,9.3373913 23.2904348,9.3373913 23.2904348,9.36869565 C23.1547826,9.62956522 22.7269565,10.4017391 22.6226087,10.6 C22.6226087,10.6 21.0156522,14.0747826 20.8486957,14.44 C20.6817391,14.8052174 20.5565217,15.2434783 20.6191304,15.4104348 C20.6817391,15.5773913 20.786087,15.8069565 21.2869565,15.8069565 C21.3286957,15.8069565 21.36,15.8069565 21.3913043,15.8069565 L23.6973913,15.8069565 Z"/>
</svg>