<svg width="18" height="20" xmlns="http://www.w3.org/2000/svg"><g fill="none" fill-rule="evenodd"><path d="M-3-2h24v24H-3z"/><path d="M17.582 3.075c.11 0 .208.038.292.115a.357.357 0 0 1 .124.269v.769a.36.36 0 0 1-.116.276.424.424 0 0 1-.3.108H.418a.425.425 0 0 1-.3-.108.361.361 0 0 1-.116-.276v-.77c0-.102.042-.191.125-.268a.417.417 0 0 1 .291-.115h4.415V1.537c0-.42.164-.781.492-1.084C5.653.152 6.045 0 6.5 0h5c.456 0 .848.152 1.176.453.327.303.49.664.49 1.084v1.538h4.416zM1.5 6.149h15v12.298c0 .42-.164.784-.491 1.092-.328.307-.72.461-1.176.461H3.167c-.456 0-.848-.154-1.175-.461-.328-.308-.492-.671-.492-1.092V6.15zm1.667 12.298h1.666V7.687H3.167v10.76zM6.5 3.075h5V1.537h-5v1.538zm0 15.372h1.667V7.687H6.5v10.76zm3.333 0H11.5V7.687H9.833v10.76zm5 0V7.687h-1.666v10.76h1.666z" fill="#231F20"/></g></svg>