<svg xmlns="http://www.w3.org/2000/svg" width="16" height="16" viewBox="0 0 24 24"><path d="M18.478 6.735c.374 0 .662.302.677.69 0 .39-.303.692-.677.692H5.57a.703.703 0 0 1-.705-.691c0-.389.317-.691.705-.691h12.91zm-5.08 2.504h5.08c.389 0 .677.317.677.705a.667.667 0 0 1-.677.677h-4.375v8.203a.697.697 0 0 1-.705.705.694.694 0 0 1-.69-.705v-8.88c0-.388.316-.705.69-.705zM1.036 16.81A11.734 11.734 0 0 1 0 11.973a12 12 0 0 1 3.238-8.231A11.895 11.895 0 0 1 10.88 0c.23 0 .46.115.59.345a.668.668 0 0 1-.26.921.443.443 0 0 1-.172.072 10.582 10.582 0 0 0-6.821 3.34 10.647 10.647 0 0 0-2.879 7.295c0 1.44.303 2.85.893 4.217a.655.655 0 0 1 .072.288.676.676 0 0 1-.677.676.65.65 0 0 1-.59-.345zM20.781 3.77a11.764 11.764 0 0 1 3.223 8.189c0 1.741-.33 3.368-.978 4.85a.678.678 0 0 1-.59.345.733.733 0 0 1-.317-.072l-.014-.014a.678.678 0 0 1-.346-.59c0-.1.03-.202.072-.288.562-1.324.85-2.734.85-4.231 0-2.706-1.022-5.282-2.864-7.267a10.736 10.736 0 0 0-6.735-3.354.614.614 0 0 1-.475-.316.703.703 0 0 1 .273-.936.735.735 0 0 1 .288-.086 12.067 12.067 0 0 1 7.613 3.77zM10.606 19.514a.716.716 0 0 1-.705-.705v-8.203H5.555c-.403 0-.705-.302-.705-.676 0-.403.316-.705.705-.705h5.051c.403 0 .705.316.705.705v8.88a.697.697 0 0 1-.705.704zm10.722-1.669a.65.65 0 0 1 .662.69.672.672 0 0 1-.044.245 11.984 11.984 0 0 1-9.9 5.21c-3.958 0-7.628-1.943-9.887-5.195a.93.93 0 0 1-.058-.288c0-.374.288-.676.662-.676.216 0 .417.115.547.273a10.674 10.674 0 0 0 17.47.014.662.662 0 0 1 .548-.273z"/></svg>