<svg xmlns="http://www.w3.org/2000/svg" width="16" height="16" viewBox="0 0 40 40"><path d="M24.044 26.833c-3.217 0-5.833-2.43-5.833-5.416 0-2.987 2.616-5.417 5.833-5.417s5.833 2.43 5.833 5.417c0 2.987-2.616 5.416-5.833 5.416zM24 17.667c-2.297 0-4.167 1.682-4.167 3.75 0 2.067 1.87 3.75 4.167 3.75 2.297 0 4.167-1.683 4.167-3.75 0-2.068-1.87-3.75-4.167-3.75zM32.421 36H15.58c-.87 0-1.579-.701-1.579-1.563 0-.07.015-1.755 1.29-3.437.742-.98 1.757-1.757 3.02-2.311 1.54-.679 3.455-1.022 5.69-1.022 2.235 0 4.15.343 5.69 1.022 1.263.555 2.278 1.332 3.02 2.311 1.275 1.682 1.29 3.367 1.29 3.438 0 .861-.708 1.562-1.579 1.562zM24 29.333c-3.419 0-5.941.795-7.295 2.297-1.015 1.126-1.037 2.277-1.038 2.288 0 .23.22.415.49.415h15.686c.27 0 .49-.186.49-.416 0-.01-.022-1.161-1.038-2.287-1.355-1.502-3.877-2.297-7.295-2.297zM37 12a3 3 0 0 1 3 3v22a3 3 0 0 1-3 3H11a3 3 0 0 1-3-3V21.045C8 20.448 8.448 20 9 20a1 1 0 0 1 1 1v16a1 1 0 0 0 1 1h26a1 1 0 0 0 1-1V15a1 1 0 0 0-1-1H20a1 1 0 0 1 0-2h17zM12.868.2c.683-.24 1.841-.27 2.599-.06.297.09.86.39 1.261.66l.728.496.8-.255c.446-.135 1.04-.36 1.307-.51.253-.136.475-.21.475-.165 0 .255-.55 1.125-1.01 1.605-.623.675-.445.736.817.285.756-.255.772-.255.623.03-.09.15-.549.676-1.039 1.156-.83.825-.876.915-.876 1.606 0 1.064-.504 3.286-1.009 4.5-.936 2.282-2.939 4.638-4.943 5.824-2.82 1.665-6.575 2.086-9.736 1.11C1.81 16.152 0 15.312 0 15.162c0-.045.549-.106 1.218-.12a8.324 8.324 0 0 0 3.978-1.11l.8-.48-.92-.315c-1.306-.45-2.478-1.486-2.775-2.462-.089-.316-.06-.33.772-.33l.86-.015-.727-.345c-.861-.436-1.648-1.17-2.034-1.921C.89 7.524.535 6.158.638 6.053c.03-.045.342.045.698.165 1.023.375 1.157.285.564-.345C.787 4.733.446 3.037.98 1.43l.252-.72.98.975c2.003 1.966 4.363 3.136 7.064 3.481l.743.09-.045-.735C9.841 2.617 11.014.876 12.868.2z"/></svg>