<svg xmlns="http://www.w3.org/2000/svg" width="16" height="16" viewBox="0 0 40 40"><path d="M27.705 16a.934.934 0 0 1 .903 1.19l-1.33 4.644h3.767c.33 0 .63.172.787.434a.934.934 0 0 1 .042 1.2 9705.868 9705.868 0 0 1-9.663 12.358 1.03 1.03 0 0 1-.92.358.933.933 0 0 1-.795-1.054l1.138-8.096h-3.09a.906.906 0 0 1-.494-.143.934.934 0 0 1-.514-1.109l2.571-8.966a.934.934 0 0 1 .926-.816h6.672zm-1.232 1.867h-4.725l-2.093 7.3h3.024a.933.933 0 0 1 .941 1.141l-.803 5.72 6.506-8.328h-3.278a.933.933 0 0 1-.928-1.04.937.937 0 0 1 .034-.183l1.322-4.61zM37 12a3 3 0 0 1 3 3v22a3 3 0 0 1-3 3H11a3 3 0 0 1-3-3V21.045C8 20.448 8.448 20 9 20a1 1 0 0 1 1 1v16a1 1 0 0 0 1 1h26a1 1 0 0 0 1-1V15a1 1 0 0 0-1-1H20a1 1 0 0 1 0-2h17zM12.868.2c.683-.24 1.841-.27 2.599-.06.297.09.86.39 1.261.66l.728.496.8-.255c.446-.135 1.04-.36 1.307-.51.253-.136.475-.21.475-.165 0 .255-.55 1.125-1.01 1.605-.623.675-.445.736.817.285.756-.255.772-.255.623.03-.09.15-.549.676-1.039 1.156-.83.825-.876.915-.876 1.606 0 1.064-.504 3.286-1.009 4.5-.936 2.282-2.939 4.638-4.943 5.824-2.82 1.665-6.575 2.086-9.736 1.11C1.81 16.152 0 15.312 0 15.162c0-.045.549-.106 1.218-.12a8.324 8.324 0 0 0 3.978-1.11l.8-.48-.92-.315c-1.306-.45-2.478-1.486-2.775-2.462-.089-.316-.06-.33.772-.33l.86-.015-.727-.345c-.861-.436-1.648-1.17-2.034-1.921C.89 7.524.535 6.158.638 6.053c.03-.045.342.045.698.165 1.023.375 1.157.285.564-.345C.787 4.733.446 3.037.98 1.43l.252-.72.98.975c2.003 1.966 4.363 3.136 7.064 3.481l.743.09-.045-.735C9.841 2.617 11.014.876 12.868.2z"/></svg>