<?xml version="1.0" encoding="UTF-8" standalone="no"?>
<svg width="24px" height="24px" viewBox="0 0 24 24" version="1.1" xmlns="http://www.w3.org/2000/svg" xmlns:xlink="http://www.w3.org/1999/xlink">
    <!-- Generator: Sketch 48.2 (47327) - http://www.bohemiancoding.com/sketch -->
    <title>upload</title>
    <desc>Created with Sketch.</desc>
    <defs></defs>
    <g id="Artboard-2" stroke="none" stroke-width="1" fill="none" fill-rule="evenodd" transform="translate(-408.000000, -48.000000)">
        <g id="upload" transform="translate(408.000000, 48.000000)">
            <rect id="24x24" x="0" y="0" width="24" height="24"></rect>
            <path d="M5.98053691,1.61073826 C7.81879195,0.536912752 9.82550336,0 12,0 C14.1751678,0 16.1812081,0.536912752 18.0201342,1.61073826 C19.8590604,2.68456376 21.3154362,4.1409396 22.3899329,5.97986577 C23.4630872,7.81946309 24,9.82550336 24,12 C24,14.1744966 23.4630872,16.1812081 22.3899329,18.0201342 C21.3154362,19.8590604 19.8590604,21.3154362 18.0201342,22.3892617 C16.1812081,23.4630872 14.1751678,24 12,24 C9.82550336,24 7.81879195,23.4630872 5.98053691,22.3892617 C4.1409396,21.3154362 2.68456376,19.8590604 1.61073826,18.0201342 C0.536912752,16.1812081 0,14.1744966 0,12 C0,9.82550336 0.536912752,7.81946309 1.61073826,5.97986577 C2.68456376,4.1409396 4.1409396,2.68456376 5.98053691,1.61073826 C5.98053691,1.61073826 4.1409396,2.68456376 5.98053691,1.61073826 L5.98053691,1.61073826 L5.98053691,1.61073826 Z M17.8899329,6.11073826 C16.2583893,4.47986577 14.295302,3.66442953 12,3.66442953 C9.70469799,3.66442953 7.74228188,4.47986577 6.11073826,6.11073826 C4.47986577,7.74161074 3.66442953,9.70469799 3.66442953,12 C3.66442953,14.295302 4.47986577,16.2583893 6.11073826,17.8892617 C7.74228188,19.5201342 9.70469799,20.3355705 12,20.3355705 C14.295302,20.3355705 16.2583893,19.5201342 17.8899329,17.8892617 C19.5201342,16.2583893 20.3355705,14.295302 20.3355705,12 C20.3355705,9.70469799 19.5201342,7.74161074 17.8899329,6.11073826 C17.8899329,6.11073826 19.5201342,7.74161074 17.8899329,6.11073826 L17.8899329,6.11073826 L17.8899329,6.11073826 Z M17.033557,12 L14.0134228,12 L14.0134228,18.0402685 L9.98657718,18.0402685 L9.98657718,12 L6.96644295,12 L12,5.95973154 L17.033557,12 L17.033557,12 Z" id="Fill-33" fill="#231F20"></path>
        </g>
    </g>
</svg>