<svg xmlns="http://www.w3.org/2000/svg" width="16" height="16" viewBox="0 0 24 24">
<path d="M12,24 C5.37282051,24 0,18.6271795 0,12 C0,5.37282051 5.37282051,0 12,0 C18.6271795,0 24,5.37282051 24,12 C24,18.6271795 18.6271795,24 12,24 Z M12,22 C17.52261,22 22,17.52261 22,12 C22,6.47739001 17.52261,2 12,2 C6.47739001,2 2,6.47739001 2,12 C2,17.52261 6.47739001,22 12,22 Z"/>
<path d="M10,10 L6.58228792,10 L11.2869209,5.29536704 C11.6807436,4.90154432 12.3192564,4.90154432 12.7130791,5.29536704 L17.4177121,10 L14,10 L14,18 C14,18.5522847 13.5522847,19 13,19 L11,19 C10.4477153,19 10,18.5522847 10,18 L10,10 Z"/>
</svg>