<svg width="16" height="16" xmlns="http://www.w3.org/2000/svg"><path d="M3.987 1.074A7.815 7.815 0 0 1 8 0c1.45 0 2.787.358 4.013 1.074a7.98 7.98 0 0 1 2.914 2.913A7.823 7.823 0 0 1 16 8c0 1.45-.358 2.787-1.073 4.013a7.98 7.98 0 0 1-2.914 2.913A7.817 7.817 0 0 1 8 16a7.815 7.815 0 0 1-4.013-1.074 7.974 7.974 0 0 1-2.913-2.913A7.818 7.818 0 0 1 0 8a7.82 7.82 0 0 1 1.074-4.013 7.974 7.974 0 0 1 2.913-2.913s-1.226.716 0 0zm7.94 3C10.839 2.987 9.53 2.443 8 2.443c-1.53 0-2.838.544-3.926 1.63C2.987 5.162 2.443 6.47 2.443 8c0 1.53.544 2.839 1.63 3.926C5.163 13.013 6.47 13.557 8 13.557c1.53 0 2.839-.544 3.927-1.63 1.086-1.088 1.63-2.397 1.63-3.927 0-1.53-.544-2.839-1.63-3.926 0 0 1.086 1.087 0 0zM11.356 8H9.342v4.027H6.658V8H4.644L8 3.973 11.356 8z" fill="#231F20" fill-rule="evenodd"/></svg>