<svg xmlns="http://www.w3.org/2000/svg" width="16" height="16" viewBox="0 0 40 40"><path d="M37 13a3 3 0 0 1 3 3v22a3 3 0 0 1-3 3H11a3 3 0 0 1-3-3V22.045C8 21.448 8.448 21 9 21a1 1 0 0 1 1 1v16a1 1 0 0 0 1 1h26a1 1 0 0 0 1-1V16a1 1 0 0 0-1-1H21a1 1 0 0 1 0-2h16zM20 32.332V21.667c0-.503.536-.824.98-.588l8.892 4.74a.666.666 0 0 1 .056 1.143l-8.891 5.925A.667.667 0 0 1 20 32.332zM3 0h11a3 3 0 0 1 3 3v11a3 3 0 0 1-3 3H3a3 3 0 0 1-3-3V3a3 3 0 0 1 3-3zm9.5 3.75c-1.877 0-2.235 1.105-2.794 1.912L7.604 8.864 6.354 3.75H3l2.116 8.566c.438 1.53 1.684 1.433 1.684 1.433.853 0 1.493-.453 2.072-1.308L14.58 3.75H12.5z"/></svg>