<svg xmlns="http://www.w3.org/2000/svg" width="16" height="16" viewBox="0 0 40 40"><path d="M37 13a3 3 0 0 1 3 3v22a3 3 0 0 1-3 3H11a3 3 0 0 1-3-3V22.045C8 21.448 8.448 21 9 21a1 1 0 0 1 1 1v16a1 1 0 0 0 1 1h26a1 1 0 0 0 1-1V16a1 1 0 0 0-1-1H21a1 1 0 0 1 0-2h16zM3 0h11a3 3 0 0 1 3 3v11a3 3 0 0 1-3 3H3a3 3 0 0 1-3-3V3a3 3 0 0 1 3-3zm11.732 5.403a1.617 1.617 0 0 0-1.146-1.129C12.57 4 8.5 4 8.5 4s-4.07 0-5.086.264a1.65 1.65 0 0 0-1.146 1.139C2 6.405 2 8.483 2 8.483s0 2.088.268 3.08c.15.548.589.98 1.146 1.128 1.028.275 5.086.275 5.086.275s4.07 0 5.086-.264c.557-.148.996-.58 1.146-1.129.268-1.002.268-3.08.268-3.08s.01-2.088-.268-3.09zM7 11V6l4.407 2.5L7 11zm8 9h18a1 1 0 0 1 0 2H15a1 1 0 0 1 0-2zm0 5h18a1 1 0 0 1 0 2H15a1 1 0 0 1 0-2zm0 5h11a1 1 0 0 1 0 2H15a1 1 0 0 1 0-2zm14 6.61v-6.22c0-.294.313-.482.572-.344l5.187 2.765c.26.139.277.504.032.667l-5.186 3.456a.389.389 0 0 1-.605-.323z"/></svg>